<?xml version="1.0" encoding="UTF-8"?>
<svg xmlns="http://www.w3.org/2000/svg" xmlns:xlink="http://www.w3.org/1999/xlink" width="24px" height="24px" viewBox="0 0 24 24" version="1.1">
<g id="surface1">
<path style=" stroke:none;fill-rule:nonzero;fill:rgb(12.941177%,58.823532%,95.294118%);fill-opacity:1;" d="M 1.5 0 C 8.429688 0 15.359375 0 22.5 0 C 22.5 0.644531 22.5 0.644531 22.472656 0.953125 C 22.46875 1.003906 22.46875 1.003906 22.460938 1.058594 C 22.453125 1.175781 22.441406 1.292969 22.429688 1.410156 C 22.421875 1.492188 22.414062 1.578125 22.410156 1.664062 C 22.386719 1.894531 22.367188 2.128906 22.347656 2.359375 C 22.324219 2.613281 22.300781 2.863281 22.277344 3.113281 C 22.234375 3.605469 22.191406 4.097656 22.148438 4.589844 C 22.097656 5.160156 22.046875 5.734375 21.996094 6.304688 C 21.902344 7.328125 21.8125 8.347656 21.722656 9.371094 C 21.632812 10.363281 21.542969 11.351562 21.457031 12.34375 C 21.449219 12.40625 21.445312 12.464844 21.441406 12.527344 C 21.417969 12.773438 21.394531 13.019531 21.375 13.265625 C 21.207031 15.144531 21.039062 17.027344 20.871094 18.910156 C 20.855469 19.105469 20.835938 19.304688 20.820312 19.5 C 20.796875 19.726562 20.777344 19.953125 20.757812 20.179688 C 20.75 20.261719 20.742188 20.34375 20.734375 20.425781 C 20.699219 20.820312 20.664062 21.214844 20.625 21.609375 C 20.367188 21.710938 20.113281 21.792969 19.847656 21.867188 C 19.789062 21.882812 19.789062 21.882812 19.726562 21.898438 C 19.601562 21.933594 19.472656 21.96875 19.34375 22.007812 C 19.25 22.03125 19.160156 22.058594 19.066406 22.082031 C 18.820312 22.152344 18.574219 22.21875 18.328125 22.289062 C 17.914062 22.402344 17.503906 22.515625 17.089844 22.628906 C 16.984375 22.660156 16.882812 22.6875 16.777344 22.71875 C 16.105469 22.902344 15.429688 23.089844 14.757812 23.28125 C 14.636719 23.316406 14.511719 23.351562 14.386719 23.386719 C 14.34375 23.398438 14.304688 23.410156 14.265625 23.421875 C 14.1875 23.445312 14.105469 23.46875 14.027344 23.488281 C 13.800781 23.554688 13.574219 23.617188 13.347656 23.683594 C 13.210938 23.722656 13.070312 23.761719 12.929688 23.800781 C 12.867188 23.820312 12.804688 23.835938 12.738281 23.855469 C 12.652344 23.882812 12.566406 23.90625 12.480469 23.929688 C 12.410156 23.949219 12.410156 23.949219 12.335938 23.972656 C 12.011719 24.035156 11.746094 23.996094 11.433594 23.90625 C 11.398438 23.894531 11.363281 23.886719 11.324219 23.875 C 11.203125 23.839844 11.082031 23.808594 10.964844 23.773438 C 10.878906 23.75 10.792969 23.722656 10.707031 23.699219 C 10.472656 23.632812 10.238281 23.570312 10.007812 23.503906 C 9.761719 23.433594 9.519531 23.363281 9.277344 23.296875 C 8.976562 23.210938 8.675781 23.125 8.371094 23.039062 C 7.671875 22.84375 6.972656 22.644531 6.269531 22.453125 C 6.175781 22.425781 6.082031 22.398438 5.984375 22.371094 C 5.625 22.273438 5.261719 22.171875 4.898438 22.070312 C 4.691406 22.011719 4.480469 21.953125 4.269531 21.894531 C 4.195312 21.875 4.117188 21.855469 4.039062 21.832031 C 3.9375 21.804688 3.832031 21.773438 3.726562 21.746094 C 3.667969 21.730469 3.613281 21.714844 3.550781 21.695312 C 3.421875 21.65625 3.421875 21.65625 3.375 21.609375 C 3.363281 21.511719 3.351562 21.410156 3.34375 21.3125 C 3.339844 21.28125 3.335938 21.25 3.335938 21.214844 C 3.324219 21.105469 3.3125 20.996094 3.304688 20.886719 C 3.296875 20.804688 3.289062 20.726562 3.28125 20.644531 C 3.261719 20.417969 3.242188 20.191406 3.222656 19.960938 C 3.203125 19.761719 3.183594 19.5625 3.167969 19.359375 C 3.105469 18.671875 3.042969 17.980469 2.980469 17.289062 C 2.957031 17.03125 2.9375 16.773438 2.914062 16.519531 C 2.722656 14.414062 2.535156 12.304688 2.351562 10.199219 C 2.332031 10.011719 2.316406 9.828125 2.300781 9.640625 C 2.296875 9.59375 2.292969 9.546875 2.289062 9.5 C 2.21875 8.738281 2.152344 7.976562 2.085938 7.214844 C 2.015625 6.425781 1.945312 5.632812 1.875 4.839844 C 1.835938 4.398438 1.796875 3.960938 1.757812 3.519531 C 1.722656 3.148438 1.691406 2.773438 1.65625 2.402344 C 1.640625 2.214844 1.625 2.027344 1.605469 1.835938 C 1.589844 1.664062 1.574219 1.492188 1.5625 1.316406 C 1.550781 1.226562 1.542969 1.132812 1.535156 1.042969 C 1.53125 0.988281 1.527344 0.933594 1.523438 0.875 C 1.515625 0.828125 1.511719 0.78125 1.507812 0.730469 C 1.496094 0.488281 1.5 0.242188 1.5 0 Z M 1.5 0 "/>
<path style=" stroke:none;fill-rule:nonzero;fill:rgb(97.647059%,97.647059%,97.647059%);fill-opacity:1;" d="M 5.34375 4.40625 C 9.738281 4.40625 14.128906 4.40625 18.65625 4.40625 C 18.597656 5.15625 18.539062 5.90625 18.46875 6.65625 C 18.460938 6.75 18.453125 6.84375 18.441406 6.9375 C 18.425781 7.136719 18.40625 7.332031 18.386719 7.53125 C 18.34375 7.996094 18.300781 8.457031 18.261719 8.921875 C 18.25 9.023438 18.242188 9.128906 18.230469 9.230469 C 18.136719 10.277344 18.042969 11.320312 17.949219 12.367188 C 17.914062 12.757812 17.878906 13.144531 17.84375 13.535156 C 17.820312 13.8125 17.792969 14.089844 17.769531 14.371094 C 17.761719 14.4375 17.757812 14.507812 17.75 14.574219 C 17.671875 15.453125 17.59375 16.332031 17.523438 17.210938 C 17.519531 17.269531 17.515625 17.328125 17.511719 17.390625 C 17.507812 17.441406 17.503906 17.488281 17.5 17.539062 C 17.484375 17.664062 17.464844 17.785156 17.4375 17.90625 C 17.023438 18.050781 16.597656 18.164062 16.171875 18.28125 C 16.035156 18.316406 15.902344 18.355469 15.765625 18.390625 C 15.734375 18.402344 15.699219 18.410156 15.664062 18.421875 C 15.417969 18.488281 15.175781 18.558594 14.933594 18.632812 C 14.421875 18.785156 13.910156 18.921875 13.390625 19.054688 C 13.15625 19.113281 12.917969 19.175781 12.683594 19.246094 C 12.648438 19.257812 12.609375 19.269531 12.570312 19.28125 C 12.5 19.300781 12.433594 19.320312 12.367188 19.34375 C 11.964844 19.464844 11.609375 19.351562 11.222656 19.226562 C 10.933594 19.136719 10.648438 19.050781 10.351562 18.980469 C 9.984375 18.890625 9.613281 18.789062 9.246094 18.6875 C 9.070312 18.636719 8.894531 18.589844 8.71875 18.539062 C 8.648438 18.519531 8.578125 18.5 8.507812 18.480469 C 8.367188 18.441406 8.226562 18.402344 8.085938 18.363281 C 7.726562 18.265625 7.367188 18.164062 7.007812 18.058594 C 6.957031 18.042969 6.957031 18.042969 6.90625 18.027344 C 6.667969 17.957031 6.667969 17.957031 6.5625 17.90625 C 6.515625 17.765625 6.503906 17.652344 6.492188 17.507812 C 6.484375 17.453125 6.480469 17.398438 6.476562 17.34375 C 6.472656 17.285156 6.46875 17.230469 6.464844 17.167969 C 6.457031 17.078125 6.449219 16.984375 6.441406 16.894531 C 6.429688 16.765625 6.417969 16.636719 6.410156 16.507812 C 6.386719 16.222656 6.363281 15.9375 6.339844 15.65625 C 6.335938 15.59375 6.332031 15.53125 6.324219 15.46875 C 6.292969 15.082031 6.257812 14.695312 6.214844 14.308594 C 6.210938 14.273438 6.207031 14.242188 6.203125 14.207031 C 6.199219 14.179688 6.199219 14.148438 6.195312 14.121094 C 6.183594 13.960938 6.1875 13.800781 6.1875 13.640625 C 7.070312 13.640625 7.949219 13.640625 8.859375 13.640625 C 8.882812 13.871094 8.902344 14.105469 8.925781 14.34375 C 8.933594 14.414062 8.941406 14.488281 8.949219 14.558594 C 8.988281 15.003906 9.023438 15.445312 9.046875 15.890625 C 9.078125 15.894531 9.109375 15.902344 9.140625 15.90625 C 9.480469 15.964844 9.808594 16.046875 10.140625 16.136719 C 10.191406 16.152344 10.246094 16.164062 10.296875 16.179688 C 10.558594 16.25 10.820312 16.324219 11.078125 16.398438 C 11.148438 16.417969 11.148438 16.417969 11.21875 16.4375 C 11.304688 16.460938 11.390625 16.484375 11.480469 16.511719 C 11.875 16.621094 12.1875 16.59375 12.578125 16.492188 C 12.621094 16.480469 12.664062 16.46875 12.703125 16.460938 C 12.996094 16.382812 13.285156 16.300781 13.570312 16.214844 C 13.839844 16.132812 14.113281 16.0625 14.382812 15.992188 C 14.445312 15.976562 14.445312 15.976562 14.507812 15.960938 C 14.546875 15.953125 14.582031 15.941406 14.621094 15.933594 C 14.65625 15.925781 14.6875 15.917969 14.722656 15.910156 C 14.8125 15.890625 14.8125 15.890625 14.953125 15.890625 C 14.957031 15.847656 14.957031 15.847656 14.960938 15.808594 C 15.015625 15.09375 15.085938 14.382812 15.171875 13.667969 C 15.191406 13.507812 15.210938 13.347656 15.230469 13.1875 C 15.242188 13.082031 15.253906 12.980469 15.265625 12.875 C 15.269531 12.828125 15.277344 12.78125 15.28125 12.730469 C 15.289062 12.6875 15.292969 12.644531 15.296875 12.597656 C 15.304688 12.558594 15.308594 12.519531 15.3125 12.480469 C 15.328125 12.375 15.328125 12.375 15.375 12.1875 C 12.296875 12.1875 9.21875 12.1875 6.046875 12.1875 C 5.828125 10.390625 5.828125 10.390625 5.8125 9.703125 C 6.597656 9.667969 7.382812 9.648438 8.171875 9.644531 C 8.277344 9.640625 8.382812 9.640625 8.488281 9.640625 C 8.710938 9.640625 8.933594 9.636719 9.15625 9.636719 C 9.738281 9.632812 10.316406 9.625 10.898438 9.621094 C 10.957031 9.621094 11.011719 9.621094 11.070312 9.621094 C 12.121094 9.609375 13.171875 9.597656 14.222656 9.582031 C 14.257812 9.582031 14.292969 9.582031 14.332031 9.582031 C 14.742188 9.574219 15.152344 9.570312 15.5625 9.5625 C 15.566406 9.507812 15.566406 9.453125 15.570312 9.398438 C 15.574219 9.324219 15.578125 9.253906 15.582031 9.179688 C 15.585938 9.144531 15.585938 9.109375 15.589844 9.074219 C 15.589844 9.039062 15.59375 9.003906 15.59375 8.96875 C 15.597656 8.917969 15.597656 8.917969 15.601562 8.871094 C 15.613281 8.742188 15.636719 8.613281 15.65625 8.484375 C 15.6875 7.957031 15.71875 7.433594 15.75 6.890625 C 12.378906 6.890625 9.003906 6.890625 5.53125 6.890625 C 5.34375 4.828125 5.34375 4.828125 5.34375 4.40625 Z M 5.34375 4.40625 "/>
</g>
</svg>
