<?xml version="1.0" encoding="UTF-8"?>
<svg xmlns="http://www.w3.org/2000/svg" xmlns:xlink="http://www.w3.org/1999/xlink" width="24px" height="24px" viewBox="0 0 24 24" version="1.1">
<g id="surface1">
<path style=" stroke:none;fill-rule:nonzero;fill:rgb(99.607843%,87.058824%,0%);fill-opacity:1;" d="M 0 0 C 7.921875 0 15.839844 0 24 0 C 24 7.921875 24 15.839844 24 24 C 16.078125 24 8.160156 24 0 24 C 0 16.078125 0 8.160156 0 0 Z M 0 0 "/>
<path style=" stroke:none;fill-rule:nonzero;fill:rgb(0.392157%,0.392157%,0%);fill-opacity:1;" d="M 20.476562 11.5 C 20.542969 11.554688 20.609375 11.613281 20.671875 11.671875 C 20.710938 11.707031 20.75 11.742188 20.789062 11.777344 C 21.070312 12.042969 21.277344 12.324219 21.46875 12.65625 C 21.332031 12.804688 21.1875 12.910156 21.015625 13.019531 C 20.964844 13.050781 20.914062 13.085938 20.863281 13.117188 C 20.808594 13.152344 20.753906 13.183594 20.703125 13.21875 C 20.648438 13.253906 20.59375 13.285156 20.542969 13.320312 C 20.441406 13.382812 20.34375 13.445312 20.246094 13.507812 C 20.148438 13.570312 20.050781 13.632812 19.957031 13.699219 C 19.828125 13.78125 19.828125 13.78125 19.726562 13.78125 C 19.617188 13.722656 19.5625 13.652344 19.488281 13.550781 C 19.453125 13.5 19.453125 13.5 19.414062 13.449219 C 19.359375 13.359375 19.359375 13.359375 19.359375 13.265625 C 19.332031 13.253906 19.304688 13.238281 19.277344 13.226562 C 19.136719 13.152344 18.996094 13.070312 18.859375 12.988281 C 18.566406 12.847656 18.191406 12.839844 17.882812 12.921875 C 17.628906 13.023438 17.441406 13.171875 17.296875 13.40625 C 17.203125 13.691406 17.199219 14.039062 17.324219 14.3125 C 17.664062 14.882812 18.4375 15.105469 19.015625 15.363281 C 20.519531 16.027344 20.519531 16.027344 21.09375 16.546875 C 21.132812 16.582031 21.171875 16.617188 21.214844 16.652344 C 21.820312 17.214844 22.101562 17.910156 22.136719 18.726562 C 22.15625 19.546875 22.007812 20.324219 21.453125 20.96875 C 20.652344 21.800781 19.601562 22.113281 18.464844 22.136719 C 17.980469 22.144531 17.53125 22.101562 17.0625 21.984375 C 17.011719 21.972656 16.960938 21.960938 16.90625 21.945312 C 16.28125 21.773438 15.722656 21.476562 15.234375 21.046875 C 15.179688 21.003906 15.179688 21.003906 15.121094 20.960938 C 14.972656 20.835938 14.859375 20.695312 14.738281 20.539062 C 14.707031 20.5 14.707031 20.5 14.671875 20.457031 C 14.296875 19.972656 14.296875 19.972656 14.296875 19.78125 C 14.472656 19.679688 14.652344 19.578125 14.828125 19.476562 C 14.890625 19.441406 14.949219 19.40625 15.007812 19.371094 C 15.378906 19.160156 15.75 18.953125 16.125 18.75 C 16.15625 18.789062 16.183594 18.832031 16.214844 18.871094 C 16.613281 19.410156 17.082031 19.929688 17.78125 20.050781 C 18.394531 20.109375 18.914062 20.066406 19.476562 19.796875 C 19.722656 19.566406 19.839844 19.324219 19.859375 18.988281 C 19.84375 18.679688 19.75 18.464844 19.546875 18.234375 C 19.046875 17.804688 18.332031 17.5625 17.730469 17.308594 C 16.800781 16.914062 15.921875 16.449219 15.375 15.5625 C 15.351562 15.527344 15.328125 15.488281 15.308594 15.453125 C 14.898438 14.714844 14.835938 13.816406 15.054688 13.011719 C 15.285156 12.238281 15.808594 11.644531 16.511719 11.261719 C 17.71875 10.679688 19.367188 10.675781 20.476562 11.5 Z M 20.476562 11.5 "/>
<path style=" stroke:none;fill-rule:nonzero;fill:rgb(0.392157%,0.392157%,0%);fill-opacity:1;" d="M 10.828125 11.015625 C 11.570312 11.015625 12.3125 11.015625 13.078125 11.015625 C 13.082031 12.074219 13.085938 13.132812 13.089844 14.191406 C 13.089844 14.683594 13.09375 15.175781 13.097656 15.667969 C 13.097656 16.09375 13.101562 16.523438 13.101562 16.953125 C 13.101562 17.179688 13.101562 17.40625 13.101562 17.632812 C 13.121094 20.210938 13.121094 20.210938 12.261719 21.207031 C 11.578125 21.890625 10.625 22.132812 9.679688 22.140625 C 9.058594 22.136719 8.484375 22.027344 7.921875 21.75 C 7.875 21.726562 7.832031 21.707031 7.785156 21.683594 C 7.148438 21.347656 6.660156 20.789062 6.328125 20.15625 C 6.328125 20.109375 6.328125 20.0625 6.328125 20.015625 C 6.4375 19.933594 6.4375 19.933594 6.589844 19.847656 C 6.617188 19.832031 6.640625 19.816406 6.671875 19.800781 C 6.757812 19.75 6.84375 19.699219 6.933594 19.648438 C 6.988281 19.617188 7.046875 19.582031 7.101562 19.550781 C 7.1875 19.5 7.269531 19.453125 7.355469 19.402344 C 7.5625 19.285156 7.765625 19.160156 7.96875 19.03125 C 8.0625 18.984375 8.0625 18.984375 8.203125 18.984375 C 8.277344 19.085938 8.339844 19.1875 8.402344 19.296875 C 8.597656 19.617188 8.808594 19.902344 9.175781 20.039062 C 9.585938 20.125 9.996094 20.113281 10.363281 19.898438 C 10.628906 19.695312 10.71875 19.394531 10.78125 19.078125 C 10.800781 18.8125 10.800781 18.550781 10.800781 18.285156 C 10.800781 18.207031 10.800781 18.125 10.804688 18.046875 C 10.804688 17.832031 10.804688 17.617188 10.804688 17.402344 C 10.804688 17.179688 10.808594 16.953125 10.808594 16.726562 C 10.808594 16.304688 10.8125 15.878906 10.8125 15.453125 C 10.8125 14.96875 10.816406 14.484375 10.816406 14 C 10.820312 13.007812 10.824219 12.011719 10.828125 11.015625 Z M 10.828125 11.015625 "/>
</g>
</svg>
